<svg width="27" height="27" viewBox="0 0 27 27" xmlns="http://www.w3.org/2000/svg">
<path fill-rule="evenodd" clip-rule="evenodd" d="M13.5 25.3636C20.0521 25.3636 25.3636 20.0521 25.3636 13.5C25.3636 6.94789 20.0521 1.63636 13.5 1.63636C6.94789 1.63636 1.63636 6.94789 1.63636 13.5C1.63636 20.0521 6.94789 25.3636 13.5 25.3636ZM13.5 27C20.9558 27 27 20.9558 27 13.5C27 6.04416 20.9558 0 13.5 0C6.04416 0 0 6.04416 0 13.5C0 20.9558 6.04416 27 13.5 27Z"/>
<path fill-rule="evenodd" clip-rule="evenodd" d="M15.0107 5.8291L16.7232 7.54162L10.7966 13.4682L16.7232 19.3948L15.0107 21.1073L7.37158 13.4682L15.0107 5.8291Z"/>
</svg>
